Coordinates
version=1
nRows=13
nColumns=36
inDegrees=yes

Units are S.I. units (second, meters, Newtons, ...)
If the header above contains a line with 'inDegrees', this indicates whether rotational values are in degrees (yes) or radians (no).

endheader
time	pelvis_tilt	pelvis_list	pelvis_rotation	pelvis_tx	pelvis_ty	pelvis_tz	hip_flexion_r	hip_adduction_r	hip_rotation_r	knee_angle_r	knee_angle_r_beta	ankle_angle_r	subtalar_angle_r	mtp_angle_r	hip_flexion_l	hip_adduction_l	hip_rotation_l	knee_angle_l	knee_angle_l_beta	ankle_angle_l	subtalar_angle_l	mtp_angle_l	lumbar_extension	lumbar_bending	lumbar_rotation	arm_flex_r	arm_add_r	arm_rot_r	elbow_flex_r	pro_sup_r	arm_flex_l	arm_add_l	arm_rot_l	elbow_flex_l	pro_sup_l
      0.00000000	     -1.25252517	     -0.71847675	     -5.50711777	      0.20238935	      0.93045517	     -0.10876166	      3.78852557	     -4.09265788	    -11.21003926	      8.50784516	      0.14848991	      4.65450090	     -1.90965677	     -6.38904464	      3.31889558	     -5.08449920	     -2.65583856	      6.46110013	      0.11276747	      9.50564199	     -0.07145948	     -6.38904464	     -2.35442677	      0.82560729	     -3.27157497	     36.94773139	      0.55024643	     53.06990027	    124.59465958	     69.32060200	     32.31187022	      0.16786318	     64.93058578	    127.98086754	     82.97026872
      0.01666670	     -0.70239939	     -0.67035014	     -6.10943227	      0.20372447	      0.92990679	     -0.10890116	      3.21741353	     -4.27275894	    -11.24592859	      8.21345347	      0.14335181	      6.20932035	     -0.37239667	     -6.68349996	      2.72515293	     -4.96927476	     -2.77404547	      6.60826921	      0.11533606	      9.56891729	     -2.52510503	     -6.68349996	     -4.43530570	      0.90460700	     -0.24941179	     38.75711042	     -3.00797172	     59.60880860	    133.08145844	     84.54277460	     33.32342293	      0.29223165	     62.39424127	    131.77726629	     97.67482437
      0.03333330	     -1.16959976	     -0.55654088	     -6.35597223	      0.20405663	      0.92887532	     -0.10816740	      3.41204136	     -4.18824540	    -11.88759281	      7.47858952	      0.13052601	      5.84492862	     -0.40526639	     -7.04994363	      3.14732516	     -5.02373709	     -2.30655821	      6.47049845	      0.11293150	      9.66076812	     -2.63922794	     -7.04994363	     -3.68681054	      0.87914696	     -1.67409633	     38.71366659	     -0.54493770	     58.43201722	    132.17587769	     88.65357952	     33.07543539	     -0.16524720	     59.65026363	    132.59334286	    102.84224238
      0.05000000	     -1.61132694	     -0.31756548	     -6.19386464	      0.20411810	      0.92269943	     -0.10777274	      3.65497273	     -4.37255836	    -12.25780981	      7.03950640	      0.12286256	      6.70597052	      0.11054750	     -7.16074732	      3.41228280	     -4.89119996	     -2.28805368	      5.90123500	      0.10299598	      9.68615124	     -2.06106591	     -7.16074732	     -2.65067352	      0.55836099	     -2.24609689	     38.92351035	      0.78602398	     57.52885276	    131.06830515	     90.29958077	     34.20252250	      0.52590179	     59.70254399	    132.63940536	    101.46210810
      0.06666670	     -2.26716572	     -0.19616577	     -6.22616235	      0.20499225	      0.91948387	     -0.10699788	      4.47190987	     -4.35774490	    -12.08951158	      7.20763731	      0.12579700	      7.60522265	     -0.20071243	     -7.18739437	      4.32302447	     -4.91621461	     -2.35218968	      6.31802752	      0.11027038	     10.33939824	     -1.71788077	     -7.18739437	     -1.63504630	      0.44279297	     -2.40086144	     38.96228057	      1.61927095	     57.63883855	    130.39349151	     89.28213796	     35.08085001	      1.23259157	     59.80216868	    132.76865914	     99.51712648
      0.08333330	     -2.82959686	     -0.01326795	     -6.33016542	      0.20607170	      0.92330317	     -0.10643834	      5.29432366	     -4.50490956	    -11.94928600	      7.58798591	      0.13243534	      8.26167695	     -0.28392385	     -7.19908997	      5.18170880	     -4.86487623	     -2.60598740	      6.87546759	      0.11999955	     10.84933392	     -1.05212329	     -7.19908997	     -0.94532120	      0.32673576	     -2.75026977	     38.83801225	      2.13824796	     58.33094106	    129.61428759	     89.63301721	     35.53960678	      0.89055675	     59.69311413	    132.75595900	     98.93685725
      0.10000000	     -2.97739861	      0.08104781	     -6.37698550	      0.20567965	      0.92864560	     -0.10668762	      5.37777385	     -4.58118690	    -11.73273388	      7.42831743	      0.12964860	      8.41796022	     -0.25767188	     -7.20137106	      5.34469567	     -4.80378414	     -2.53502182	      6.96762862	      0.12160806	     10.69961083	     -0.78556489	     -7.20137106	     -0.90740187	      0.27025637	     -2.68992078	     38.33069277	      2.12244626	     58.67549642	    129.28712240	     89.67831355	     35.34386585	      0.93784359	     59.92621181	    132.85730023	     98.77761435
      0.11666670	     -3.92359353	      0.23928895	     -6.54415933	      0.20631311	      0.91649420	     -0.10579736	      6.51869067	     -4.64839509	    -11.61195405	      7.48713561	      0.13067517	      8.66740811	     -0.21155148	     -7.29312004	      6.47765436	     -4.80875881	     -2.83552519	      7.26023052	      0.12671493	     10.90617916	     -0.24137122	     -7.29312004	      0.54376608	      0.33055361	     -2.36924376	     38.29866504	      2.56254314	     58.17191431	    129.25116415	     90.74381595	     35.74103753	      1.58333578	     60.88351881	    133.32540163	     93.35202371
      0.13333330	     -4.12431582	      0.22284989	     -6.60126477	      0.20594238	      0.92818926	     -0.10670216	      6.59297943	     -4.57718328	    -11.30618823	      7.23887040	      0.12634212	      8.56729130	     -0.13480982	     -7.30945006	      6.75351226	     -4.89826097	     -2.99353750	      7.34563020	      0.12820543	     10.86078848	      0.13710239	     -7.30945006	      0.67575860	      0.39866259	     -2.17187989	     37.66747895	      2.24785752	     58.49256135	    129.13495699	     89.10041007	     35.30110324	      1.56226212	     61.41073488	    133.31007941	     91.19509033
      0.15000000	     -4.34083576	      0.14265712	     -6.63262563	      0.20623910	      0.92533304	     -0.10651560	      6.82285886	     -4.41908773	    -11.13710220	      7.20435747	      0.12573976	      8.45068411	     -0.22520218	     -7.34394062	      7.10891729	     -5.02448805	     -2.98765409	      7.47860079	      0.13052621	     10.88552767	      0.25514464	     -7.34394062	      0.88378223	      0.56029242	     -2.07994672	     37.42757820	      2.25034755	     58.12287401	    128.47458682	     87.46696967	     35.22484419	      1.71831527	     62.35123857	    133.52738186	     89.10875670
      0.16666670	     -4.41491029	      0.07119711	     -6.57520383	      0.20640206	      0.92473777	     -0.10647739	      6.77380437	     -4.31687174	    -11.17869538	      7.02669212	      0.12263891	      8.37804377	     -0.23829249	     -7.36060074	      7.26060592	     -5.11230318	     -2.90229840	      7.53105589	      0.13144172	     10.91487257	      0.43600275	     -7.36060074	      0.80967764	      0.62308260	     -2.25625073	     37.14689488	      2.13408067	     58.21580441	    128.81957322	     86.60100820	     35.19963304	      1.51272444	     63.20156504	    133.70887238	     88.02487360
      0.18333330	     -4.68767584	      0.07540394	     -6.54079640	      0.20616457	      0.92533857	     -0.10647047	      7.04267304	     -4.26297228	    -11.36846648	      6.89226932	      0.12029279	      8.28438145	      0.03435643	     -7.40549758	      7.66142452	     -5.14506395	     -2.92129437	      7.63885902	      0.13332324	     10.78606982	      0.50635127	     -7.40549758	      1.26240460	      0.65471774	     -2.13956871	     36.83151756	      2.11006857	     57.69456764	    128.74322345	     89.27801599	     34.84697774	      1.53654919	     62.66708094	    133.41686229	     89.25269623
      0.20000000	     -4.64247138	      0.07604982	     -6.46837424	      0.20588839	      0.92794816	     -0.10652966	      6.82024067	     -4.25687836	    -11.30646294	      6.63386766	      0.11578283	      8.01546652	     -0.05822466	     -7.42660972	      7.56783080	     -5.12009593	     -2.77877880	      7.44896094	      0.13000889	     10.45956040	      0.47482140	     -7.42660972	      1.19264339	      0.66208087	     -2.10437032	     36.76307591	      1.96044592	     57.96594804	    128.70823524	     86.39810492	     34.84069230	      1.41132016	     63.33780495	    133.34043606	     86.31626336
